<svg width="233" height="36" viewBox="0 0 233 36" fill="none" xmlns="http://www.w3.org/2000/svg">
<path fill-rule="evenodd" clip-rule="evenodd" d="M232.012 28.4637H233V31.0462C232.804 31.0992 232.6 31.1392 232.386 31.1662C232.173 31.1932 231.879 31.2062 231.505 31.2062C230.383 31.2062 229.519 30.9422 228.914 30.4131C228.308 29.885 228.006 29.0648 228.006 27.9537V18.9452H226.35V16.4717H228.006V12.5731H230.997V16.4717H233V18.9452H230.997V27.2815C230.997 28.0697 231.335 28.4637 232.012 28.4637ZM224.507 26.0443C224.489 26.8145 224.396 27.5136 224.227 28.1407C224.057 28.7688 223.786 29.3109 223.412 29.768C223.038 30.225 222.562 30.5791 221.983 30.8301C221.404 31.0812 220.697 31.2062 219.86 31.2062C219.005 31.2062 218.284 31.0762 217.697 30.8171C217.109 30.5571 216.628 30.189 216.254 29.714C215.88 29.2399 215.613 28.6708 215.453 28.0077C215.293 27.3436 215.212 26.6174 215.212 25.8293V21.5806C215.212 20.7915 215.293 20.0653 215.453 19.4032C215.613 18.7391 215.88 18.17 216.254 17.695C216.628 17.2209 217.109 16.8528 217.697 16.5928C218.284 16.3337 219.005 16.2027 219.86 16.2027C220.715 16.2027 221.436 16.3337 222.023 16.5928C222.611 16.8528 223.092 17.2209 223.466 17.695C223.839 18.17 224.106 18.7391 224.267 19.4032C224.427 20.0653 224.507 20.7915 224.507 21.5806V24.269H218.204V26.3664C218.204 27.2095 218.346 27.8146 218.631 28.1817C218.916 28.5488 219.326 28.7328 219.86 28.7328C220.394 28.7328 220.803 28.5488 221.088 28.1817C221.373 27.8146 221.516 27.2095 221.516 26.3664V26.0443H224.507ZM221.516 21.7956V21.0435C221.516 20.2004 221.373 19.5953 221.088 19.2282C220.803 18.8601 220.394 18.6771 219.86 18.6771C219.326 18.6771 218.916 18.8601 218.631 19.2282C218.346 19.5953 218.204 20.2004 218.204 21.0435V21.7956H221.516ZM209.364 29.4859C209.043 29.755 208.758 29.996 208.509 30.212C208.26 30.4271 208.002 30.6061 207.735 30.7491C207.467 30.8931 207.174 31.0052 206.853 31.0852C206.532 31.1662 206.159 31.2062 205.731 31.2062C204.93 31.2062 204.311 30.9372 203.875 30.4001C203.438 29.862 203.22 29.1189 203.22 28.1677V16.4717H206.212V27.6846C206.212 28.0427 206.31 28.3077 206.506 28.4767C206.701 28.6478 206.96 28.7328 207.28 28.7328C207.601 28.7328 207.912 28.6438 208.215 28.4637C208.518 28.2847 208.847 28.0697 209.203 27.8186V16.4717H212.195V30.9372H209.364V29.4859ZM197.051 29.701C196.748 29.952 196.481 30.167 196.25 30.3461C196.018 30.5261 195.787 30.6821 195.555 30.8171C195.324 30.9512 195.079 31.0492 194.821 31.1122C194.563 31.1752 194.273 31.2062 193.953 31.2062C193.009 31.2062 192.265 30.8661 191.723 30.185C191.179 29.5039 190.908 28.5007 190.908 27.1735V20.2364C190.908 18.9092 191.179 17.906 191.723 17.2249C192.265 16.5438 193.009 16.2027 193.953 16.2027C194.7 16.2027 195.297 16.3417 195.742 16.6198C196.187 16.8978 196.659 17.3499 197.158 17.978H197.211V16.4717H200.043V35.5089H197.051V29.701ZM197.051 19.4292C196.748 19.2142 196.463 19.0352 196.196 18.8921C195.929 18.7491 195.644 18.6771 195.341 18.6771C194.932 18.6771 194.589 18.8291 194.313 19.1342C194.037 19.4392 193.899 20.0653 193.899 21.0165V26.3934C193.899 27.3436 194.037 27.9707 194.313 28.2757C194.589 28.5808 194.932 28.7328 195.341 28.7328C195.644 28.7328 195.929 28.6618 196.196 28.5178C196.463 28.3747 196.748 28.1957 197.051 27.9807V19.4292ZM186.875 19.0532C186.358 19.0532 185.895 19.2142 185.486 19.5373C185.076 19.8603 184.872 20.3434 184.872 20.9895V30.9372H181.88V16.4717H184.738V18.166H184.792C185.148 17.5389 185.624 17.0548 186.221 16.7138C186.817 16.3737 187.472 16.2027 188.184 16.2027H188.798V19.3492C188.531 19.2772 188.254 19.2102 187.97 19.1472C187.685 19.0842 187.32 19.0532 186.875 19.0532ZM175.818 30.3591C175.782 30.172 175.755 29.988 175.738 29.808C175.168 30.275 174.625 30.6241 174.108 30.8571C173.592 31.0892 172.969 31.2062 172.239 31.2062C171.224 31.2062 170.463 30.8981 169.955 30.279C169.448 29.6609 169.194 28.8858 169.194 27.9537C169.194 27.1645 169.323 26.4564 169.581 25.8293C169.839 25.2012 170.235 24.6281 170.77 24.108C171.304 23.5889 171.972 23.1089 172.773 22.6698C173.574 22.2307 174.509 21.8046 175.578 21.3926V20.5314C175.578 19.2952 175.087 18.6771 174.108 18.6771C173.432 18.6771 172.987 18.8601 172.773 19.2282C172.559 19.5953 172.434 20.0933 172.399 20.7205H169.408C169.497 19.2512 169.968 18.13 170.823 17.3589C171.678 16.5888 172.808 16.2027 174.215 16.2027C175.604 16.2027 176.677 16.5258 177.434 17.1709C178.19 17.817 178.569 18.8021 178.569 20.1294V29.4049C178.569 29.6379 178.591 29.889 178.635 30.158C178.68 30.4271 178.72 30.6871 178.755 30.9372H175.898C175.88 30.7401 175.853 30.5481 175.818 30.3591ZM175.578 23.5969C174.9 23.992 174.34 24.3501 173.895 24.6731C173.449 24.9952 173.102 25.3092 172.853 25.6143C172.603 25.9193 172.43 26.2154 172.332 26.5014C172.234 26.7875 172.185 27.0925 172.185 27.4156C172.185 27.8816 172.301 28.2177 172.533 28.4237C172.764 28.6308 173.111 28.7328 173.574 28.7328C173.984 28.7328 174.357 28.5988 174.696 28.3297C175.034 28.0607 175.328 27.7466 175.578 27.3886V23.5969ZM163.665 31.2062C163.345 31.2062 163.056 31.1752 162.797 31.1122C162.539 31.0492 162.294 30.9512 162.063 30.8171C161.831 30.6821 161.595 30.5261 161.355 30.3461C161.115 30.167 160.852 29.952 160.567 29.701V35.5089H157.576V16.4717H160.407V17.978H160.461C160.959 17.3499 161.431 16.8978 161.876 16.6198C162.321 16.3417 162.918 16.2027 163.665 16.2027C164.609 16.2027 165.353 16.5438 165.896 17.2249C166.439 17.906 166.71 18.9092 166.71 20.2364V27.1735C166.71 28.5007 166.439 29.5039 165.896 30.185C165.353 30.8661 164.609 31.2062 163.665 31.2062ZM163.719 21.0165C163.719 20.5314 163.683 20.1424 163.612 19.8463C163.541 19.5503 163.438 19.3132 163.305 19.1342C163.171 18.9542 163.015 18.8341 162.837 18.7711C162.659 18.7081 162.473 18.6771 162.276 18.6771C161.973 18.6771 161.689 18.7491 161.422 18.8921C161.155 19.0352 160.87 19.2142 160.567 19.4292V27.9807C160.87 28.1957 161.155 28.3747 161.422 28.5178C161.689 28.6618 161.973 28.7328 162.276 28.7328C162.473 28.7328 162.659 28.7018 162.837 28.6388C163.015 28.5758 163.171 28.4557 163.305 28.2757C163.438 28.0967 163.541 27.8586 163.612 27.5636C163.683 27.2675 163.719 26.8775 163.719 26.3934V21.0165ZM150.779 21.8096C151.197 22.1227 151.646 22.4547 152.127 22.8038C152.608 23.1539 153.057 23.5399 153.476 23.96C153.894 24.3821 154.242 24.8651 154.518 25.4122C154.794 25.9593 154.932 26.5904 154.932 27.3076C154.932 27.9537 154.829 28.5178 154.625 29.0018C154.42 29.4859 154.131 29.894 153.757 30.225C153.383 30.5571 152.937 30.8031 152.421 30.9642C151.904 31.1262 151.344 31.2062 150.738 31.2062C149.42 31.2062 148.388 30.8531 147.64 30.144C146.892 29.4369 146.402 28.4467 146.171 27.1735L148.789 26.4474C148.878 27.0565 149.06 27.5906 149.336 28.0467C149.612 28.5037 150.088 28.7328 150.765 28.7328C151.157 28.7328 151.477 28.6258 151.726 28.4107C151.976 28.1957 152.101 27.8816 152.101 27.4686C152.101 27.0565 151.963 26.6764 151.687 26.3264C151.411 25.9773 151.063 25.6413 150.645 25.3182C150.226 24.9952 149.777 24.6641 149.296 24.3231C148.815 23.983 148.365 23.6059 147.948 23.1939C147.528 22.7818 147.182 22.3247 146.906 21.8226C146.629 21.3206 146.492 20.7385 146.492 20.0753C146.492 19.5012 146.594 18.9772 146.799 18.5021C147.003 18.027 147.288 17.6189 147.654 17.2789C148.018 16.9388 148.441 16.6738 148.922 16.4847C149.403 16.2967 149.928 16.2027 150.498 16.2027C151.673 16.2027 152.639 16.5618 153.396 17.2789C154.153 17.996 154.646 18.9192 154.878 20.0483L152.341 20.4784C152.127 19.2772 151.557 18.6771 150.631 18.6771C150.24 18.6771 149.924 18.7761 149.683 18.9732C149.443 19.1702 149.323 19.4562 149.323 19.8333C149.323 20.2094 149.461 20.5554 149.737 20.8685C150.012 21.1815 150.36 21.4956 150.779 21.8096ZM140.883 29.4859C140.563 29.755 140.277 29.996 140.028 30.212C139.779 30.4271 139.521 30.6061 139.254 30.7491C138.987 30.8931 138.693 31.0052 138.372 31.0852C138.052 31.1662 137.678 31.2062 137.251 31.2062C136.449 31.2062 135.831 30.9372 135.394 30.4001C134.958 29.862 134.74 29.1189 134.74 28.1677V16.4717H137.731V27.6846C137.731 28.0427 137.829 28.3077 138.026 28.4767C138.221 28.6478 138.479 28.7328 138.8 28.7328C139.12 28.7328 139.432 28.6438 139.735 28.4637C140.037 28.2847 140.366 28.0697 140.723 27.8186V16.4717H143.714V30.9372H140.883V29.4859ZM128.731 29.4319H128.677C128.179 30.059 127.707 30.5121 127.262 30.7901C126.816 31.0672 126.22 31.2062 125.472 31.2062C124.528 31.2062 123.785 30.8661 123.242 30.185C122.699 29.5039 122.428 28.5007 122.428 27.1735V20.2364C122.428 18.9092 122.699 17.906 123.242 17.2249C123.785 16.5438 124.528 16.2027 125.472 16.2027C125.793 16.2027 126.082 16.2347 126.34 16.2967C126.599 16.3607 126.843 16.4587 127.075 16.5928C127.306 16.7278 127.538 16.8888 127.769 17.0768C128 17.2649 128.268 17.4759 128.571 17.709V11.5249H131.562V30.9372H128.731V29.4319ZM128.571 19.4292C128.268 19.2142 127.983 19.0352 127.716 18.8921C127.449 18.7491 127.164 18.6771 126.861 18.6771C126.451 18.6771 126.109 18.8291 125.833 19.1342C125.557 19.4392 125.419 20.0653 125.419 21.0165V26.3934C125.419 27.3436 125.557 27.9707 125.833 28.2757C126.109 28.5808 126.451 28.7328 126.861 28.7328C127.164 28.7328 127.449 28.6618 127.716 28.5178C127.983 28.3747 128.268 28.1957 128.571 27.9807V19.4292ZM116.418 19.7253C116.418 19.3672 116.32 19.1032 116.124 18.9322C115.928 18.7621 115.67 18.6771 115.35 18.6771C115.029 18.6771 114.717 18.7671 114.415 18.9452C114.112 19.1252 113.783 19.3402 113.427 19.5913V30.9372H110.435V16.4717H113.266V17.924C113.587 17.6549 113.872 17.4129 114.121 17.1979C114.37 16.9828 114.629 16.8038 114.896 16.6598C115.163 16.5168 115.457 16.4047 115.778 16.3237C116.098 16.2437 116.472 16.2027 116.899 16.2027C117.701 16.2027 118.319 16.4717 118.755 17.0098C119.192 17.5479 119.41 18.292 119.41 19.2412V30.9372H116.418V19.7253ZM103.331 11.5249H106.643V30.9372H103.331V11.5249ZM95.7717 31.2062C92.8607 31.2062 91.5257 29.0018 91.5257 23.947C91.5257 18.8921 92.8607 16.6868 95.7717 16.6868C98.6837 16.6868 100.019 18.8921 100.019 23.947C100.019 29.0018 98.6837 31.2062 95.7717 31.2062ZM95.7717 18.3001C94.1427 18.3001 93.4487 19.3222 93.4487 23.947C93.4487 28.5718 94.1427 29.5929 95.7717 29.5929C97.4017 29.5929 98.0957 28.5718 98.0957 23.947C98.0957 19.3222 97.4017 18.3001 95.7717 18.3001ZM85.0087 31.2062C83.9667 31.2062 83.0857 30.5611 82.4447 29.916V35.5089H80.5217V16.9558H82.1247V18.3001H82.1777C82.8187 17.3059 83.7797 16.6868 85.0087 16.6868C87.1987 16.6868 89.0147 18.5691 89.0147 23.947C89.0147 29.3239 87.1987 31.2062 85.0087 31.2062ZM84.4747 18.3001C83.8867 18.3001 83.0317 18.8381 82.4447 19.6453V28.3567C83.0057 28.9218 83.6737 29.5929 84.5277 29.5929C86.1567 29.5929 87.0917 28.2487 87.0917 23.947C87.0917 19.6453 86.0767 18.3001 84.4747 18.3001ZM74.4057 29.4049C73.4977 30.3461 72.1617 31.2062 71.2536 31.2062C69.3306 31.2062 68.2096 30.131 68.2096 27.5496V16.9558H70.1327V27.2815C70.1327 28.8938 70.6126 29.5929 71.6546 29.5929C72.5897 29.5929 73.4447 28.9478 74.2987 27.8726V16.9558H76.2217V30.9372H74.4057V29.4049ZM62.2526 20.9895V30.9372H60.3296V16.9558H62.2526V18.6501H62.3066C63.4546 16.9558 64.3096 16.6868 65.8316 16.6868V18.5151C64.3896 18.5151 63.2946 18.9992 62.2526 20.9895ZM55.1746 29.4859C54.3736 30.5611 53.2516 31.2062 51.6756 31.2062C48.2836 31.2062 46.1466 28.5718 46.1466 21.2315C46.1466 13.8913 48.2836 11.2559 51.6756 11.2559C55.2286 11.2559 56.5106 14.3744 56.7776 17.4939H54.6936C54.5336 14.9665 53.7856 13.0302 51.6756 13.0302C49.3516 13.0302 48.2306 15.1275 48.2306 21.2315C48.2306 27.3346 49.3516 29.4319 51.6756 29.4319C53.6256 29.4319 54.6936 28.3567 54.6936 26.3664V23.6239H52.0756V21.8496H56.7776V30.9372H55.4416L55.1746 29.4859ZM25.5426 24.208V33.4286C25.5426 34.8488 24.3996 36 22.9886 36C21.5775 36 20.4335 34.8488 20.4335 33.4286V29.3509L14.5775 35.2469C14.0985 35.729 13.4485 36 12.7715 36C12.0935 36 11.4435 35.729 10.9645 35.2469L0.748502 24.9612C-0.249501 23.957 -0.249501 22.3297 0.748502 21.3246L10.2175 11.792V2.57143C10.2175 1.15119 11.3605 0 12.7715 0C14.1825 0 15.3255 1.15119 15.3255 2.57143V6.64911L21.1825 0.753125C22.1795 -0.251042 23.7976 -0.251042 24.7946 0.753125L35.0116 11.0388C35.4906 11.5209 35.7596 12.175 35.7596 12.8571C35.7596 13.5393 35.4906 14.1934 35.0116 14.6754L25.5426 24.208ZM10.2175 13.6103L1.6505 22.2337C1.1535 22.7358 1.1535 23.5499 1.6515 24.052L10.2175 32.6754V13.6103ZM20.4335 3.32455L15.3255 8.46741V32.6754L20.4335 27.5336V3.32455ZM28.6906 11.948L25.5426 8.77946V16.9348L28.6906 13.7663C29.1866 13.2662 29.1866 12.4481 28.6906 11.948Z" fill="#003057"/>
</svg>
